<?xml version="1.0" standalone="no"?>
<!DOCTYPE svg PUBLIC "-//W3C//DTD SVG 20010904//EN"
 "http://www.w3.org/TR/2001/REC-SVG-20010904/DTD/svg10.dtd">
<svg version="1.0" xmlns="http://www.w3.org/2000/svg"
 width="1257.000000pt" height="1280.000000pt" viewBox="0 0 1257.000000 1280.000000"
 preserveAspectRatio="xMidYMid meet">
<metadata>
Created by potrace 1.15, written by Peter Selinger 2001-2017
</metadata>
<g transform="translate(0.000000,1280.000000) scale(0.100000,-0.100000)"
fill="#000000" stroke="none">
<path d="M6243 12584 c-29 -41 -147 -168 -321 -344 -90 -91 -168 -173 -173
-182 -13 -24 -28 -23 -133 12 -50 16 -113 34 -141 40 -27 6 -61 13 -75 16 -27
5 -100 18 -202 34 -105 16 -231 8 -303 -20 -11 -4 -51 -16 -90 -25 -65 -16
-114 -30 -205 -56 -19 -6 -44 -14 -55 -19 -52 -23 -153 -60 -163 -60 -7 0 -12
-4 -12 -9 0 -5 -18 -16 -40 -25 -39 -15 -179 -113 -210 -145 -8 -9 -35 -43
-60 -75 -40 -53 -45 -64 -45 -115 -3 -138 37 -182 166 -185 27 0 44 8 70 32
19 17 39 32 45 32 6 0 19 9 30 21 10 12 35 29 55 39 19 10 41 26 49 35 8 9 32
26 54 37 23 11 43 23 46 27 5 5 35 21 100 49 14 6 79 22 145 35 129 25 226 27
355 8 41 -7 91 -13 110 -15 65 -6 120 -18 126 -28 3 -5 -17 -32 -45 -59 -28
-27 -51 -53 -51 -58 0 -5 -8 -12 -17 -15 -10 -3 -51 -40 -92 -81 -41 -41 -77
-75 -82 -75 -14 0 -49 -42 -71 -83 -10 -22 -21 -37 -24 -35 -2 3 -13 40 -24
84 -27 106 -55 169 -99 222 -72 86 -172 97 -274 28 -34 -23 -52 -57 -62 -116
-9 -53 -13 -76 -23 -110 -11 -38 -4 -386 9 -463 10 -61 9 -70 -8 -94 -10 -14
-23 -34 -29 -44 -6 -10 -92 -99 -191 -197 l-181 -177 -13 40 c-6 22 -14 55
-16 73 -2 18 -10 52 -17 75 -8 23 -20 69 -26 102 -7 33 -16 67 -21 77 -5 9
-11 64 -13 122 -3 58 -8 110 -11 116 -3 5 -24 10 -45 10 -21 0 -41 4 -44 8 -9
16 -245 34 -415 34 -195 -1 -395 -26 -591 -72 -68 -16 -155 -42 -165 -50 -5
-4 -28 -13 -49 -20 -56 -18 -171 -76 -229 -116 -27 -19 -54 -34 -60 -34 -6 0
-63 26 -126 57 -115 57 -115 58 -203 57 -84 -1 -92 -3 -183 -48 -52 -26 -95
-51 -95 -55 0 -5 -18 -28 -40 -52 -22 -24 -40 -48 -40 -52 0 -4 -9 -27 -19
-50 -18 -40 -46 -212 -36 -227 2 -4 7 -22 10 -41 3 -19 8 -42 11 -51 11 -37
94 -122 137 -141 27 -12 35 -31 17 -42 -5 -3 -22 -31 -38 -63 -16 -31 -37 -70
-45 -87 -44 -86 -154 -364 -149 -379 2 -4 -2 -13 -7 -20 -8 -10 -28 -73 -36
-116 -2 -8 -10 -40 -18 -70 -9 -30 -18 -80 -21 -111 -3 -31 -9 -67 -14 -80
-19 -52 -24 -481 -5 -500 6 -6 49 -13 94 -15 166 -7 222 -16 377 -56 147 -38
180 -45 274 -63 21 -4 38 -12 38 -17 0 -5 -108 -118 -239 -251 -132 -133 -260
-263 -286 -289 -26 -27 -51 -48 -56 -48 -5 0 -9 -3 -9 -8 0 -4 -48 -57 -106
-117 -381 -393 -577 -583 -617 -597 -18 -7 -26 -15 -23 -24 3 -9 -49 -69 -137
-157 -78 -78 -176 -178 -218 -222 -87 -90 -288 -285 -295 -285 -2 0 -28 -24
-57 -53 -28 -28 -64 -61 -78 -72 -44 -34 -45 -58 -4 -93 19 -17 35 -34 35 -38
0 -4 68 -72 152 -153 320 -308 592 -576 651 -639 26 -29 51 -52 54 -52 4 0 59
-51 122 -114 248 -244 364 -356 507 -491 183 -173 364 -354 364 -366 0 -5 6
-9 13 -9 20 0 50 -37 42 -50 -4 -7 2 -14 14 -17 30 -8 26 -18 -14 -43 -19 -12
-35 -26 -35 -30 0 -5 -11 -15 -25 -23 -51 -26 -325 -291 -325 -313 0 -4 -10
-17 -22 -29 -13 -12 -38 -39 -55 -60 -29 -33 -33 -36 -40 -19 -39 107 -156
109 -313 5 -57 -38 -114 -91 -130 -121 -21 -39 -12 -125 20 -185 17 -31 30
-63 30 -69 0 -7 9 -21 20 -31 11 -10 20 -26 20 -35 0 -9 11 -37 23 -61 13 -24
34 -75 47 -114 12 -38 31 -81 40 -95 9 -14 23 -43 30 -65 12 -37 49 -111 127
-255 30 -55 120 -191 133 -200 3 -3 10 -14 14 -24 12 -35 109 -165 169 -229
31 -33 57 -65 57 -69 0 -5 13 -21 30 -34 16 -14 35 -35 42 -48 43 -74 60 -97
122 -160 38 -39 108 -114 154 -166 50 -55 102 -104 126 -116 23 -11 40 -26 38
-33 -1 -7 2 -10 8 -6 6 4 27 -8 48 -26 70 -61 157 -143 142 -134 -13 8 -13 7
-1 -9 10 -12 16 -14 21 -5 6 8 10 7 16 -4 5 -8 27 -25 49 -38 22 -12 47 -28
55 -35 8 -6 40 -24 70 -40 30 -15 62 -34 71 -41 24 -20 268 -143 285 -143 7 0
37 -11 66 -24 29 -13 114 -43 188 -67 74 -23 149 -48 167 -56 17 -7 43 -13 58
-13 14 0 40 -8 58 -17 18 -9 36 -16 40 -15 9 3 110 -25 142 -39 39 -17 191
-49 233 -49 32 0 54 8 82 28 41 29 90 95 90 122 0 8 7 28 15 43 8 16 20 55 27
87 10 52 10 63 -7 102 -10 24 -26 52 -35 63 -41 48 -43 45 105 204 28 29 55
59 60 65 116 131 147 169 174 213 29 47 35 51 50 40 26 -18 81 -65 81 -69 0
-6 113 -130 134 -147 11 -9 40 -35 65 -58 l45 -41 -22 -45 c-28 -57 -50 -180
-48 -277 2 -81 32 -259 47 -274 5 -6 9 -21 9 -34 0 -22 65 -160 81 -172 3 -3
14 -20 23 -38 26 -51 106 -132 151 -153 22 -11 69 -35 105 -54 36 -19 80 -35
98 -35 19 0 48 -6 65 -14 65 -28 141 -36 301 -31 87 2 163 8 170 13 13 10 91
35 109 35 26 0 107 -67 215 -178 62 -63 117 -113 122 -110 5 3 11 1 15 -5 9
-14 55 -13 55 2 0 6 79 89 175 185 l175 174 37 -6 c119 -21 540 -21 636 0 104
22 207 60 207 77 0 4 4 8 9 8 18 0 80 45 86 63 4 9 17 23 30 30 23 12 85 89
85 106 0 5 6 14 14 20 8 7 17 23 20 37 4 14 22 60 42 101 19 42 37 92 40 112
3 20 10 60 15 90 10 48 5 183 -7 202 -2 4 -7 27 -10 51 -12 100 -36 200 -56
235 l-22 36 117 111 c64 61 117 116 117 121 0 6 4 16 9 24 7 10 15 7 37 -17
16 -17 38 -43 49 -58 24 -33 63 -79 91 -108 11 -12 25 -29 30 -38 5 -9 59 -57
119 -108 61 -50 125 -104 143 -120 l34 -28 -32 -22 c-31 -22 -47 -51 -56 -100
-3 -14 -11 -43 -18 -65 -46 -143 55 -306 184 -300 25 1 77 7 115 14 252 42
265 45 292 59 12 7 30 12 41 12 20 0 106 31 155 56 16 8 34 14 40 14 7 0 29 9
50 20 20 11 45 20 54 20 10 0 42 11 71 25 30 14 64 25 75 25 12 0 42 11 65 25
24 14 56 27 70 30 14 2 30 9 36 15 5 5 19 10 31 10 11 0 35 9 53 20 18 11 39
20 46 20 8 0 37 16 66 35 29 19 58 35 64 35 7 0 21 9 31 20 10 11 36 25 57 31
23 6 58 28 83 52 68 66 154 142 165 145 5 2 10 9 10 16 0 7 14 24 32 37 18 13
40 32 50 42 10 9 22 17 28 17 5 0 17 12 27 28 10 15 42 52 73 83 30 31 105
109 165 173 61 64 130 136 154 159 118 112 222 226 230 249 2 7 16 27 30 44
14 17 37 49 51 73 14 23 39 61 56 84 17 23 52 83 79 132 26 50 55 101 65 115
28 40 75 155 119 290 23 69 45 134 50 145 28 67 36 87 57 155 41 130 41 285 0
338 -34 44 -71 72 -109 81 -23 5 -82 19 -132 31 -85 20 -187 26 -229 14 -32
-10 -56 -37 -62 -72 -4 -18 -12 -36 -18 -38 -7 -3 -52 35 -102 83 -155 152
-241 231 -276 255 -18 13 -40 29 -48 36 -24 21 -113 76 -154 95 -44 20 -45 17
39 102 93 95 762 780 866 887 63 65 209 215 324 335 116 119 236 242 267 272
198 196 288 278 322 296 30 16 44 34 67 85 36 77 35 110 -3 128 -29 14 -138
117 -521 495 -127 125 -231 227 -232 227 -1 0 -83 80 -183 178 -205 200 -233
227 -317 302 -153 136 -234 214 -229 222 3 4 0 8 -5 8 -6 0 -21 16 -33 35 -13
19 -28 35 -35 35 -7 0 -47 37 -90 82 -79 84 -148 152 -244 244 -86 81 -193
203 -209 237 -8 18 -29 39 -46 48 l-32 15 57 13 c31 7 83 19 116 26 33 7 96
22 140 34 139 37 257 62 347 75 89 13 121 27 112 51 -3 8 -2 20 3 27 4 7 8 27
9 43 1 17 3 85 5 153 2 74 8 122 14 122 5 0 5 4 -2 8 -7 4 -14 49 -18 112 -11
171 -13 191 -29 290 -25 146 -42 223 -54 247 -7 12 -12 29 -12 38 0 9 -11 41
-25 71 -14 30 -25 63 -25 73 0 10 -7 24 -15 31 -8 7 -15 18 -15 25 0 18 -136
221 -175 259 -18 18 -41 48 -50 67 -17 33 -17 33 10 56 l27 24 36 -22 c73 -44
129 -88 171 -137 70 -79 151 -94 189 -34 26 42 161 183 225 234 41 35 27 62
-95 186 -60 60 -108 116 -108 123 1 32 90 142 202 250 44 42 62 79 38 79 -5 0
-10 7 -10 15 0 9 -9 19 -19 23 -21 8 -138 110 -180 156 -14 16 -43 45 -64 65
-21 20 -52 57 -69 82 -29 45 -59 67 -85 63 -7 -1 -20 -2 -29 -3 -9 0 -59 -43
-112 -94 -119 -115 -136 -125 -165 -100 -12 10 -37 32 -57 48 -19 17 -55 51
-80 77 -32 32 -56 48 -83 53 -34 7 -41 4 -81 -31 -24 -22 -65 -57 -92 -79 -27
-21 -69 -63 -94 -91 -25 -29 -62 -64 -83 -79 -37 -25 -38 -28 -36 -80 2 -45 7
-57 28 -73 14 -10 64 -78 111 -150 58 -90 92 -134 108 -138 21 -6 22 -8 9 -21
-20 -21 -42 -12 -137 57 -45 33 -119 77 -165 99 -79 38 -116 50 -255 87 -36 9
-85 23 -110 32 -25 8 -74 20 -110 27 -36 7 -85 19 -110 25 -47 13 -569 19
-665 7 -27 -3 -53 -6 -58 -6 -14 -2 -28 -55 -32 -125 -4 -80 -13 -154 -21
-175 -2 -8 -7 -37 -10 -65 -8 -67 -76 -323 -98 -364 -13 -25 6 -42 -776 724
-118 117 -233 229 -255 250 -52 50 -64 79 -52 124 14 54 9 128 -15 205 -12 39
-22 72 -23 75 -1 6 -35 58 -55 84 -32 41 -97 105 -158 155 -59 48 -67 51 -120
52 -139 2 -197 -3 -213 -17 -8 -8 -18 -14 -21 -14 -13 0 -89 72 -272 257 -171
172 -246 233 -285 233 -6 0 -18 -12 -28 -26z m1277 -11282 c-10 -42 -75 -130
-105 -141 -5 -2 -37 -25 -70 -51 -51 -40 -121 -70 -162 -70 -4 0 26 32 67 71
41 39 120 115 174 168 61 59 101 91 104 83 2 -7 -1 -34 -8 -60z m-2052 -79
c28 -18 102 -90 102 -99 0 -3 10 -14 23 -25 32 -26 3 -23 -41 5 -41 26 -80 66
-107 109 -20 31 -15 34 23 10z"/>
<path d="M8270 1078 c-56 -26 -77 -50 -91 -102 -13 -46 -5 -136 14 -167 19
-31 67 -56 122 -64 46 -6 54 -3 92 24 48 35 61 55 68 108 3 21 11 48 17 60 17
35 -36 114 -100 147 -41 21 -67 20 -122 -6z"/>
</g>
</svg>
